<?xml version="1.0" encoding="UTF-8"?>
<svg xmlns="http://www.w3.org/2000/svg" className="w-screen sm:w-full opacity-75 "
     viewBox="0 0 1200 700"  >

  <style>
    /* Animaciones de loop infinito */
    @keyframes cloudMove {
      0% { transform: translateX(0); }
      100% { transform: translateX(-1200px); }
    }
    @keyframes waveMove {
      0% { transform: translateX(0); }
      100% { transform: translateX(-400px); }
    }
    @keyframes blink {
      0%, 100% { opacity: 1; }
      50% { opacity: 0.3; }
    }

    .cloud { animation: cloudMove 60s linear infinite; }
    .waves { animation: waveMove 8s linear infinite; }
    .window { animation: blink 2s infinite; }
    .window:nth-child(2n) { animation-delay: 0.5s; }
    .window:nth-child(3n) { animation-delay: 1s; }
    .window:nth-child(4n) { animation-delay: 1.5s; }
  </style>

  <!-- Gradientes -->
  <defs>
    
    
    <linearGradient id="skyRainy" x1="0" y1="0" x2="0" y2="1">
      <stop offset="0%" stop-color="#7fb3d5"/>
      <stop offset="100%" stop-color="#7fb3d5"/>
    </linearGradient>
    
    
    <linearGradient id="reflection" x1="0" y1="0" x2="0" y2="1">
      <stop offset="0%" stop-color="#7fb3d5" stop-opacity="0.25"/>
      <stop offset="50%" stop-color="#7fb3d5" stop-opacity="0.15"/>
      <stop offset="100%" stop-color="#7fb3d5" stop-opacity="0.4"/>
    </linearGradient>
  </defs>

  <!-- Cielo -->
  <rect width="1200" height="700" fill="url(#skySunset)"/>

  <!-- Sol -->
  
    
    
  
    
    

  <!-- Nubes (duplicadas para loop perfecto) -->
  

  <!-- Montañas -->
  <path d="M0 500 L200 380 L400 440 L600 360 L800 450 L1000 370 L1200 440 L1200 700 L0 700 Z"
        fill="#2f3a65" opacity="0.4"/>

  <!-- Horizonte urbano minimalista -->
  <g fill="#2f4f4f" opacity="0.6" transform="translate(0,120)">
    <rect x="100" y="460" width="20" height="30"/>
    <rect x="140" y="450" width="25" height="40"/>
    <rect x="180" y="470" width="15" height="20"/>
    <rect x="230" y="440" width="30" height="50"/>
    <rect x="280" y="455" width="20" height="35"/>
    <rect x="330" y="450" width="25" height="40"/>
    <rect x="380" y="465" width="15" height="25"/>
    <rect x="430" y="445" width="30" height="45"/>
    <rect x="480" y="460" width="20" height="30"/>
    <rect x="530" y="450" width="25" height="40"/>
    <rect x="580" y="470" width="15" height="20"/>
    <rect x="630" y="440" width="30" height="50"/>
    <rect x="680" y="455" width="20" height="35"/>
    <rect x="730" y="450" width="25" height="40"/>
    <rect x="780" y="465" width="15" height="25"/>
    <rect x="830" y="445" width="30" height="45"/>
    <rect x="880" y="460" width="20" height="30"/>
    <rect x="930" y="450" width="25" height="40"/>
    <rect x="980" y="470" width="15" height="20"/>
    <rect x="1030" y="440" width="30" height="50"/>
    <rect x="1080" y="455" width="20" height="35"/>
    <rect x="1130" y="450" width="25" height="40"/>
  </g>

  <!-- Ventanas parpadeantes -->
  <g fill="#ffd27f" class="window" transform="translate(0,120)">
    <rect x="105" y="465" width="5" height="5"/>
    <rect x="145" y="455" width="5" height="5"/>
    <rect x="235" y="445" width="5" height="5"/>
    <rect x="335" y="455" width="5" height="5"/>
    <rect x="435" y="450" width="5" height="5"/>
    <rect x="535" y="455" width="5" height="5"/>
    <rect x="635" y="450" width="5" height="5"/>
    <rect x="735" y="455" width="5" height="5"/>
    <rect x="835" y="450" width="5" height="5"/>
    <rect x="935" y="455" width="5" height="5"/>
    <rect x="1035" y="450" width="5" height="5"/>
    <rect x="1085" y="460" width="5" height="5"/>
  </g>

  <!-- Reflejo animado con ondas duplicadas para loop -->
  <rect x="0" y="600" width="1200" height="100" fill="url(#reflection)" opacity="0.6"/>
  <g class="waves">
    <path d="M0 620 Q100 630 200 620 T400 620 T600 620 T800 620 T1000 620 T1200 620
             T1400 620 T1600 620" fill="none" stroke="#ffffff" strokeOpacity="0.3" strokeWidth="6"/>
    <path d="M0 640 Q150 650 300 640 T600 640 T900 640 T1200 640
             T1500 640 T1800 640" fill="none" stroke="#ffd27f" strokeOpacity="0.25" strokeWidth="5"/>
  </g>

  <!-- Suelo oscuro -->
  <rect x="0" y="600" width="1200" height="100" fill="#2f4f4f" opacity="0.6"/>

  <title>Horizonte urbano minimalista loopable</title>
  <desc>SVG animado de horizonte urbano con nubes, ondas y ventanas animadas en loop infinito perfecto.</desc>

<g opacity="0.6">
  <ellipse cx="200" cy="180" rx="120" ry="40" fill="#cfd8dc" fillOpacity="0.5">
    <animate attributeName="cx" values="200;1250" dur="60s" repeatCount="indefinite"/>
  </ellipse>
  <ellipse cx="600" cy="220" rx="140" ry="45" fill="#b0bec5" fillOpacity="0.3">
    <animate attributeName="cx" values="600;-200" dur="80s" repeatCount="indefinite"/>
  </ellipse>
</g>

<line x1="0" y1="-50" x2="3" y2="50" stroke="#90a4ae" stroke-width="1.5" opacity="0.4"><animateTransform attributeName="transform" type="translate" from="0 0" to="0 800" dur="1.5s" repeatCount="indefinite"/></line>
<line x1="40" y1="-50" x2="43" y2="50" stroke="#90a4ae" stroke-width="1.5" opacity="0.4"><animateTransform attributeName="transform" type="translate" from="0 0" to="0 800" dur="1.8s" repeatCount="indefinite"/></line>
<line x1="80" y1="-50" x2="83" y2="50" stroke="#90a4ae" stroke-width="1.5" opacity="0.4"><animateTransform attributeName="transform" type="translate" from="0 0" to="0 800" dur="2.1s" repeatCount="indefinite"/></line>
<line x1="120" y1="-50" x2="123" y2="50" stroke="#90a4ae" stroke-width="1.5" opacity="0.4"><animateTransform attributeName="transform" type="translate" from="0 0" to="0 800" dur="2.4s" repeatCount="indefinite"/></line>
<line x1="160" y1="-50" x2="163" y2="50" stroke="#90a4ae" stroke-width="1.5" opacity="0.4"><animateTransform attributeName="transform" type="translate" from="0 0" to="0 800" dur="2.7s" repeatCount="indefinite"/></line>
<line x1="200" y1="-50" x2="203" y2="50" stroke="#90a4ae" stroke-width="1.5" opacity="0.4"><animateTransform attributeName="transform" type="translate" from="0 0" to="0 800" dur="1.5s" repeatCount="indefinite"/></line>
<line x1="240" y1="-50" x2="243" y2="50" stroke="#90a4ae" stroke-width="1.5" opacity="0.4"><animateTransform attributeName="transform" type="translate" from="0 0" to="0 800" dur="1.8s" repeatCount="indefinite"/></line>
<line x1="280" y1="-50" x2="283" y2="50" stroke="#90a4ae" stroke-width="1.5" opacity="0.4"><animateTransform attributeName="transform" type="translate" from="0 0" to="0 800" dur="2.1s" repeatCount="indefinite"/></line>
<line x1="320" y1="-50" x2="323" y2="50" stroke="#90a4ae" stroke-width="1.5" opacity="0.4"><animateTransform attributeName="transform" type="translate" from="0 0" to="0 800" dur="2.4s" repeatCount="indefinite"/></line>
<line x1="360" y1="-50" x2="363" y2="50" stroke="#90a4ae" stroke-width="1.5" opacity="0.4"><animateTransform attributeName="transform" type="translate" from="0 0" to="0 800" dur="2.7s" repeatCount="indefinite"/></line>
<line x1="400" y1="-50" x2="403" y2="50" stroke="#90a4ae" stroke-width="1.5" opacity="0.4"><animateTransform attributeName="transform" type="translate" from="0 0" to="0 800" dur="1.5s" repeatCount="indefinite"/></line>
<line x1="440" y1="-50" x2="443" y2="50" stroke="#90a4ae" stroke-width="1.5" opacity="0.4"><animateTransform attributeName="transform" type="translate" from="0 0" to="0 800" dur="1.8s" repeatCount="indefinite"/></line>
<line x1="480" y1="-50" x2="483" y2="50" stroke="#90a4ae" stroke-width="1.5" opacity="0.4"><animateTransform attributeName="transform" type="translate" from="0 0" to="0 800" dur="2.1s" repeatCount="indefinite"/></line>
<line x1="520" y1="-50" x2="523" y2="50" stroke="#90a4ae" stroke-width="1.5" opacity="0.4"><animateTransform attributeName="transform" type="translate" from="0 0" to="0 800" dur="2.4s" repeatCount="indefinite"/></line>
<line x1="560" y1="-50" x2="563" y2="50" stroke="#90a4ae" stroke-width="1.5" opacity="0.4"><animateTransform attributeName="transform" type="translate" from="0 0" to="0 800" dur="2.7s" repeatCount="indefinite"/></line>
<line x1="600" y1="-50" x2="603" y2="50" stroke="#90a4ae" stroke-width="1.5" opacity="0.4"><animateTransform attributeName="transform" type="translate" from="0 0" to="0 800" dur="1.5s" repeatCount="indefinite"/></line>
<line x1="640" y1="-50" x2="643" y2="50" stroke="#90a4ae" stroke-width="1.5" opacity="0.4"><animateTransform attributeName="transform" type="translate" from="0 0" to="0 800" dur="1.8s" repeatCount="indefinite"/></line>
<line x1="680" y1="-50" x2="683" y2="50" stroke="#90a4ae" stroke-width="1.5" opacity="0.4"><animateTransform attributeName="transform" type="translate" from="0 0" to="0 800" dur="2.1s" repeatCount="indefinite"/></line>
<line x1="720" y1="-50" x2="723" y2="50" stroke="#90a4ae" stroke-width="1.5" opacity="0.4"><animateTransform attributeName="transform" type="translate" from="0 0" to="0 800" dur="2.4s" repeatCount="indefinite"/></line>
<line x1="760" y1="-50" x2="763" y2="50" stroke="#90a4ae" stroke-width="1.5" opacity="0.4"><animateTransform attributeName="transform" type="translate" from="0 0" to="0 800" dur="2.7s" repeatCount="indefinite"/></line>
<line x1="800" y1="-50" x2="803" y2="50" stroke="#90a4ae" stroke-width="1.5" opacity="0.4"><animateTransform attributeName="transform" type="translate" from="0 0" to="0 800" dur="1.5s" repeatCount="indefinite"/></line>
<line x1="840" y1="-50" x2="843" y2="50" stroke="#90a4ae" stroke-width="1.5" opacity="0.4"><animateTransform attributeName="transform" type="translate" from="0 0" to="0 800" dur="1.8s" repeatCount="indefinite"/></line>
<line x1="880" y1="-50" x2="883" y2="50" stroke="#90a4ae" stroke-width="1.5" opacity="0.4"><animateTransform attributeName="transform" type="translate" from="0 0" to="0 800" dur="2.1s" repeatCount="indefinite"/></line>
<line x1="920" y1="-50" x2="923" y2="50" stroke="#90a4ae" stroke-width="1.5" opacity="0.4"><animateTransform attributeName="transform" type="translate" from="0 0" to="0 800" dur="2.4s" repeatCount="indefinite"/></line>
<line x1="960" y1="-50" x2="963" y2="50" stroke="#90a4ae" stroke-width="1.5" opacity="0.4"><animateTransform attributeName="transform" type="translate" from="0 0" to="0 800" dur="2.7s" repeatCount="indefinite"/></line>
<line x1="1000" y1="-50" x2="1003" y2="50" stroke="#90a4ae" stroke-width="1.5" opacity="0.4"><animateTransform attributeName="transform" type="translate" from="0 0" to="0 800" dur="1.5s" repeatCount="indefinite"/></line>
<line x1="1040" y1="-50" x2="1043" y2="50" stroke="#90a4ae" stroke-width="1.5" opacity="0.4"><animateTransform attributeName="transform" type="translate" from="0 0" to="0 800" dur="1.8s" repeatCount="indefinite"/></line>
<line x1="1080" y1="-50" x2="1083" y2="50" stroke="#90a4ae" stroke-width="1.5" opacity="0.4"><animateTransform attributeName="transform" type="translate" from="0 0" to="0 800" dur="2.1s" repeatCount="indefinite"/></line>
<line x1="1120" y1="-50" x2="1123" y2="50" stroke="#90a4ae" stroke-width="1.5" opacity="0.4"><animateTransform attributeName="transform" type="translate" from="0 0" to="0 800" dur="2.4s" repeatCount="indefinite"/></line>
<line x1="1160" y1="-50" x2="1163" y2="50" stroke="#90a4ae" stroke-width="1.5" opacity="0.4"><animateTransform attributeName="transform" type="translate" from="0 0" to="0 800" dur="2.7s" repeatCount="indefinite"/></line>
<circle cx="100" cy="600" r="0" stroke="#a3c9e2" stroke-width="1" fill="none" opacity="0.5"><animate attributeName="r" values="0;25" dur="3s" begin="0s" repeatCount="indefinite"/><animate attributeName="opacity" values="0.6;0;0" dur="3s" begin="0s" repeatCount="indefinite"/></circle>
<circle cx="250" cy="600" r="0" stroke="#a3c9e2" stroke-width="1" fill="none" opacity="0.5"><animate attributeName="r" values="0;25" dur="3s" begin="1s" repeatCount="indefinite"/><animate attributeName="opacity" values="0.6;0;0" dur="3s" begin="1s" repeatCount="indefinite"/></circle>
<circle cx="400" cy="600" r="0" stroke="#a3c9e2" stroke-width="1" fill="none" opacity="0.5"><animate attributeName="r" values="0;25" dur="3s" begin="2s" repeatCount="indefinite"/><animate attributeName="opacity" values="0.6;0;0" dur="3s" begin="2s" repeatCount="indefinite"/></circle>
<circle cx="550" cy="600" r="0" stroke="#a3c9e2" stroke-width="1" fill="none" opacity="0.5"><animate attributeName="r" values="0;25" dur="3s" begin="3s" repeatCount="indefinite"/><animate attributeName="opacity" values="0.6;0;0" dur="3s" begin="3s" repeatCount="indefinite"/></circle>
<circle cx="700" cy="600" r="0" stroke="#a3c9e2" stroke-width="1" fill="none" opacity="0.5"><animate attributeName="r" values="0;25" dur="3s" begin="4s" repeatCount="indefinite"/><animate attributeName="opacity" values="0.6;0;0" dur="3s" begin="4s" repeatCount="indefinite"/></circle>
<circle cx="850" cy="600" r="0" stroke="#a3c9e2" stroke-width="1" fill="none" opacity="0.5"><animate attributeName="r" values="0;25" dur="3s" begin="5s" repeatCount="indefinite"/><animate attributeName="opacity" values="0.6;0;0" dur="3s" begin="5s" repeatCount="indefinite"/></circle>
<circle cx="1000" cy="600" r="0" stroke="#a3c9e2" stroke-width="1" fill="none" opacity="0.5"><animate attributeName="r" values="0;25" dur="3s" begin="6s" repeatCount="indefinite"/><animate attributeName="opacity" values="0.6;0;0" dur="3s" begin="6s" repeatCount="indefinite"/></circle>
</svg>
