<svg xmlns="http://www.w3.org/2000/svg" viewBox="0 0 1122.52 793.701">
  <defs>
    <clipPath id="a" clipPathUnits="userSpaceOnUse">
      <path d="M-221.1 246.514h841.89v-595.276H-221.1Z"/>
    </clipPath>
    <clipPath id="b" clipPathUnits="userSpaceOnUse">
      <path d="M-211.747 237.262h841.89v-595.276h-841.89Z"/>
    </clipPath>
    <clipPath id="c" clipPathUnits="userSpaceOnUse">
      <path d="M-110.884 376.883h841.89v-595.276h-841.89Z"/>
    </clipPath>
    <clipPath id="d" clipPathUnits="userSpaceOnUse">
      <path d="M-103.727 300.608h841.89v-595.276h-841.89Z"/>
    </clipPath>
    <clipPath id="e" clipPathUnits="userSpaceOnUse">
      <path d="M-212.205 280.382h841.89v-595.276h-841.89Z"/>
    </clipPath>
    <clipPath id="f" clipPathUnits="userSpaceOnUse">
      <path d="M-153.878 241.56h841.89v-595.275h-841.89Z"/>
    </clipPath>
    <clipPath id="g" clipPathUnits="userSpaceOnUse">
      <path d="M-98.982 238.325h841.89V-356.95h-841.89Z"/>
    </clipPath>
  </defs>
  <path fill="#efe9dc" d="M0 793.701h1122.52V.001H0Z"/>
  <path fill="#5e663a" d="M0 0c.769.221 1.446-1.387 1.686-1.988.417-1.046.758-2.533.981-3.65.402-2.008.756-2.524-.583-4.294-13.932-13.459-26.91-27.855-40.328-41.794-3.065-3.183-7.287-6.517-9.985-9.788-1.024-1.242-1.594-2.952-.679-4.428.576-.928 2.582-2.907 3.442-3.862 11.807-13.119 24.157-26.234 36.427-38.926 2.322-2.401 5.667-5.147 7.659-7.661.328-.413.798-.853.693-1.377-.227-1.125-5.099-6.011-6.303-5.992-.604.01-3.31 2.914-3.917 3.542-14.648 15.154-28.612 31.012-43.37 46.056-.753.769-2.456 2.812-3.475 2.769-.662-.028-2.122-1.299-2.68-1.789-5.478-4.808-10.894-10.901-16.201-16.042-13.172-12.758-26.644-25.267-39.471-38.374-.182-.133-.4-.269-.631-.28-.417-.02-3.581 2.326-4.152 2.782-.487.39-2.287 1.796-2.339 2.304-.054.522.874 1.526 1.247 1.958 3.71 4.299 9.246 9.039 13.45 13.093 8.068 7.783 16.377 15.336 24.414 23.149C-55.934-57.194-29.205-28.367-1.112-.858-.896-.678-.173-.05 0 0" clip-path="url(#a)" transform="matrix(1.33333 0 0 -1.33333 294.801 328.685)"/>
  <path fill="#5e663a" d="M0 0c.234.137.77.059 1.03-.054 2.079-1.528 4.249-2.83 5.527-5.165l-.169-.36c-14.358-14.21-28.364-28.79-42.582-43.107-26.393-26.578-53.251-52.675-79.895-79.004-1.365-1.646-2.407.249-3.196 1.445-1.015 1.539-2.834 4.425-1.531 6.132 10.645 10.254 21.151 20.656 31.795 30.91 8.562 8.249 17.17 16.429 25.661 24.752 1.978 1.939 4.34 4.098 6.146 6.146.922 1.045 1.867 1.825 1.558 3.349-.179.883-1.699 2.417-2.362 3.16-3.596 4.03-7.538 7.803-11.228 11.752-13.047 13.966-25.957 28.062-39.465 41.59-.647.965 1.712 1.587 2.465 1.828 2.536.813 6.668 1.968 8.853.046a6685.85 6685.85 0 0 0 32.606-34.552c4.28-4.571 8.501-9.59 12.908-13.991 1.9-1.898 3.655-2.683 5.976-.801C-30.854-30.616-15.291-15.839-.295-.496-.16-.358-.07-.041 0 0" clip-path="url(#b)" transform="matrix(1.33333 0 0 -1.33333 282.329 316.35)"/>
  <path fill="#5e663a" d="M0 0c-.7.418-.878.834-.534 1.247 2.022 2.714 5.962 6.011 8.548 8.464 10.857 10.3 21.941 20.915 33.133 30.818 2.162 1.912 4.784 4.484 7.072 6.11 1.519 1.08 2.821 1.516 4.034 1.477 2.69-.085 4.666-2.115 5.466-2.955 12.829-13.473 23.627-18.566 22.643-29.122-.112-1.201-.448-3.237-1.689-5.72-4.101-4.597-9.31-8.894-14.78-11.775-9.182-4.836-17.047-2.35-24.262 4.48-7.682 7.271-7.189 13.179.448 20.226 2.645 2.44 7.403 6.683 11.22 5.514 2.924-.894 9.235-7.434 10.659-10.183 1.8-3.472-.318-6.209-3.113-8.219-2.683-1.929-7.416-2.615-9.472.622-2.216 3.49 2.149 2.783 3.258 3.989.494.537.759 1.646.594 2.358-.182.785-2.806 3.092-3.614 3.163-3.057.27-7.627-4.178-7.761-7.22-.234-5.332 8.898-10.522 13.646-10.434 4.412.081 9.8 4.692 12.644 7.846 4.812 5.336 3.336 7.522-.977 12.209-3.524 3.831-9.066 9.624-13.102 12.729-4.644 3.573-8.756-.488-12.201-3.646C31.063 22.084 21.284 10.908 10.871.619 10.194-.05 9.329-.908 8.41-1.196 6.556-1.777 1.812-.861 0 0" clip-path="url(#c)" transform="matrix(1.33333 0 0 -1.33333 147.845 502.51)"/>
  <path fill="#5e663a" d="M0 0c.094.055.966 1.726 1.017 1.923.834 3.23-3.595 8.428-6.765 8.383-4.395-.062-11.246-8.319-10.767-12.724.42-3.868 8.943-13.248 12.629-14.446 2.853-.927 5.404.975 7.565 2.586C7.824-11.186 17.636-2.41 17.833 2.934c.104 2.846-3.427 6.545-5.24 8.616C3.557 21.873-6.355 31.485-15.366 41.842c-.293.564-.724 1.238-.799 1.877-.149 1.264 1.128 6.702 1.945 7.644.449.518.909.63 1.525.274C-2.612 41.254 7.427 30.746 17.046 19.922c2.725-3.065 10.513-11.571 11.436-15.106 1.112-4.256-1.418-6.487-3.954-9.482-5.447-6.433-11.966-12.536-18.524-17.816-3.796-3.055-7.466-6.51-12.444-2.993-4.268 3.014-13.728 13.432-16.182 18.02-4.054 7.577.722 13.369 5.461 18.827 2.902 3.343 8.501 10.422 13.491 8.854 2.194-.689 6.946-5.953 8.507-7.881C8.04 8.388 11.152 4.084 8.56-1.167 7.304-3.714 1.265-9.523-1.525-9.964c-3.671-.58-8.855 5.033-8.603 8.593.136 1.927 1.346 2.457 2.585 3.481.887.733 1.191 1.803 2.579 1.323C-4.02 3.107-1.219-.717 0 0" clip-path="url(#d)" transform="matrix(1.33333 0 0 -1.33333 138.302 400.811)"/>
  <path fill="#5e663a" d="M0 0c1.599.154 2.723-.356 4.014-1.23C7.916-3.873 17.43-14.289 19.058-18.608c2.971-7.884-3.498-17.482-8.682-23.12-3.425-3.725-6.137-5.39-10.855-2.295-3.557 2.333-10.649 9.903-10.15 14.394.269 2.423 5.555 8.486 7.777 9.502 1.789.818 2.74.662 4.374-.341 2.843-1.743 7.124-6.76 3.958-9.951-2.679-2.7-3.95.493-6.321.997-1.501.319-1.546-.655-1.416-1.95.243-2.423 2.825-6.318 5.577-5.971 4.238.533 9.511 9.18 8.965 13.209-.443 3.268-7.186 11.086-10.125 12.498-3.535 1.699-7.346-2.294-9.607-4.609-2.852-2.92-9.932-10.277-10.46-14.124-.478-3.489 2.4-6.453 4.494-8.952 8.847-10.556 18.641-20.345 27.858-30.572.172-.412.362-.906.337-1.357-.054-.962-2.498-6.962-3.173-7.515-.858-.702-1.521.111-2.198.631C-.896-66.272-11.966-55-21.867-42.787c-2.276 2.808-7.657 9.216-7.288 12.802.294 2.867 6.295 9.223 8.439 11.511C-16.024-13.466-10.05-7.195-4.951-2.709-3.565-1.489-1.904-.183 0 0" clip-path="url(#e)" transform="matrix(1.33333 0 0 -1.33333 282.94 373.843)"/>
  <path fill="#5e663a" d="M0 0c1.398 1.252 2.454 1.004 4.081.377.641-.248 1.573-.668 1.992-1.215.445-.582 1.115-3.042 1.583-2.999.271.025 2.925 2.548 3.055 2.834.991 2.186-2.92 5.277-4.654 6.028C-.483 7.861-11.405 1.846-8.617-5.73c1.45-3.939 9.812-12.955 13.413-15.268 3.501-2.248 7.762-.094 10.641 2.265 3.074 2.518 6.43 5.865 9.355 8.637C31.31-3.917 37.49 2.63 44.055 8.763c1.228.783 2.167.558 3.506.357 2.311-.347 4.683-1.181 6.887-1.935-.203-.735-.867-.956-1.341-1.417-10.18-9.891-20.261-19.887-30.722-29.489-2.111-1.938-9.378-9.029-11.455-9.743-4.267-1.468-7.967 3.271-10.55 6.091a360.19 360.19 0 0 0-9.976 11.401c-4.283 5.1-7.721 9.518-7.22 16.666.325 4.633 5.65 8.671 9.871 9.724 6.765 1.688 18.622 1.386 24.068-3.412C19.161 5.21 22.359 2.113 21.4-.827c-.866-2.654-7.296-8.552-9.622-10.506-3.633-3.054-7.508-1.806-10.687 1.238C-1.941-7.194-3.613-3.236 0 0" clip-path="url(#f)" transform="matrix(1.33333 0 0 -1.33333 205.17 322.081)"/>
  <path fill="#5e663a" d="M0 0c.324.069.628.092.899-.145 9.639-9.431 18.514-19.593 27.744-29.415 7.349-7.819 15.141-15.276 22.174-23.404 1.588-1.836 4.88-5.235 4.571-7.782-.123-1.013-2.121-2.448-2.966-3.014-.442-.295-1.98-1.249-2.395-1.337-2.865-.602-3.643 2.277-5.004 4.061-3.131 4.104-7.489 7.766-11.073 11.529C20.461-35.346 7.457-20.698-5.814-6.332a1.32 1.32 0 0 0 0 1.118c.12.261 2.646 2.723 3.067 3.096C-2.352-1.769-.308-.066 0 0" clip-path="url(#g)" transform="matrix(1.33333 0 0 -1.33333 131.976 317.767)"/>
  <text xml:space="preserve" transform="matrix(1.33333 0 0 1.34766 336.037 426.635)"><tspan x="0" y="0" fill="#5e663a" font-family="CormorantGaramond-Light" font-size="139.424" font-weight="300">SAHIRA</tspan></text>
  <text xml:space="preserve" transform="matrix(1.33333 0 0 1.33333 350.473 507.158)"><tspan x="0" y="0" fill="#5e663a" dx="0 8.6208553 9.4303255 9.4303255 9.4303255 9.4303255 9.4303255 9.4303255 9.4303255 8.944644 7.3257036 7.3257036 9.4303255 9.4303255 9.4303255 9.4303255 9.4303255" font-family="IBMPlexSansCond-Light" font-size="40.474" font-stretch="condensed" font-weight="300">BY LIZ GUAYASAMÍN</tspan></text>
</svg>
